<svg width="50" height="50" viewBox="0 0 50 50" fill="none" xmlns="http://www.w3.org/2000/svg">
  <path d="M25 12.5C26.3807 12.5 27.5 11.3807 27.5 10C27.5 8.61929 26.3807 7.5 25 7.5C23.6193 7.5 22.5 8.61929 22.5 10C22.5 11.3807 23.6193 12.5 25 12.5Z" fill="#0f766e"/>
  <path d="M15 17.5C16.3807 17.5 17.5 16.3807 17.5 15C17.5 13.6193 16.3807 12.5 15 12.5C13.6193 12.5 12.5 13.6193 12.5 15C12.5 16.3807 13.6193 17.5 15 17.5Z" fill="#0f766e"/>
  <path d="M35 17.5C36.3807 17.5 37.5 16.3807 37.5 15C37.5 13.6193 36.3807 12.5 35 12.5C33.6193 12.5 32.5 13.6193 32.5 15C32.5 16.3807 33.6193 17.5 35 17.5Z" fill="#0f766e"/>
  <path d="M15 37.5C16.3807 37.5 17.5 36.3807 17.5 35C17.5 33.6193 16.3807 32.5 15 32.5C13.6193 32.5 12.5 33.6193 12.5 35C12.5 36.3807 13.6193 37.5 15 37.5Z" fill="#0f766e"/>
  <path d="M35 37.5C36.3807 37.5 37.5 36.3807 37.5 35C37.5 33.6193 36.3807 32.5 35 32.5C33.6193 32.5 32.5 33.6193 32.5 35C32.5 36.3807 33.6193 37.5 35 37.5Z" fill="#0f766e"/>
  <path d="M25 42.5C26.3807 42.5 27.5 41.3807 27.5 40C27.5 38.6193 26.3807 37.5 25 37.5C23.6193 37.5 22.5 38.6193 22.5 40C22.5 41.3807 23.6193 42.5 25 42.5Z" fill="#0f766e"/>
  <path d="M15 20L25 15L35 20" stroke="#0f766e" stroke-width="2"/>
  <path d="M15 35L25 40L35 35" stroke="#0f766e" stroke-width="2"/>
  <path d="M15 20V35" stroke="#0f766e" stroke-width="2"/>
  <path d="M35 20V35" stroke="#0f766e" stroke-width="2"/>
  <path d="M25 15V40" stroke="#0f766e" stroke-width="2"/>
</svg>

