<svg width="50" height="50" viewBox="0 0 50 50" fill="none" xmlns="http://www.w3.org/2000/svg">
  <path d="M15 30C17.7614 30 20 27.7614 20 25C20 22.2386 17.7614 20 15 20C12.2386 20 10 22.2386 10 25C10 27.7614 12.2386 30 15 30Z" stroke="#0f766e" stroke-width="2"/>
  <path d="M35 30C37.7614 30 40 27.7614 40 25C40 22.2386 37.7614 20 35 20C32.2386 20 30 22.2386 30 25C30 27.7614 32.2386 30 35 30Z" stroke="#0f766e" stroke-width="2"/>
  <path d="M20 25H30" stroke="#0f766e" stroke-width="2"/>
  <path d="M  stroke-width="2"/>
  <path d="M20 25H30" stroke="#0f766e" stroke-width="2"/>
  <path d="M15 30V35" stroke="#0f766e" stroke-width="2"/>
  <path d="M35 30V35" stroke="#0f766e" stroke-width="2"/>
  <path d="M15 35H35" stroke="#0f766e" stroke-width="2"/>
</svg>

